<?xml version="1.0" encoding="UTF-8"?>
<svg preserveAspectRatio="xMidYMid slice" width="800px" height="800px" xmlns="http://www.w3.org/2000/svg" id="Capa_1" data-name="Capa 1" viewBox="0 0 300 300">
  <title>at-icon</title>
  <g>
    <path d="M114.48,252.83h0a3.52,3.52,0,0,1-3.48-3.55c.07-6.66,3.78-11.94,10.72-15.3a37.56,37.56,0,0,1,15.23-3.41c22.85-.33,33.13-.58,36.69-3.09a11.24,11.24,0,0,0,4.62-8.22,7.21,7.21,0,0,0-1.95-5.8c-2.68-2.53-4.85-4.84-4.41-7.63.4-2.5,2.5-3.48,3.89-4.13a6.15,6.15,0,0,0,3.3-2.69,5.35,5.35,0,0,1,.29-.47,1.41,1.41,0,0,0,.19-.34,1.52,1.52,0,0,0,0-1.15,1.56,1.56,0,0,0-.83-.8l-.17-.07a7.07,7.07,0,0,1-4.36-5.26c-.34-2.41.78-4.75,3.32-6.94,1.72-1.48,1.87-2,1.88-2.11s-.19-1.2-4.29-4.19a6.72,6.72,0,0,1-3-6c.35-4.94,6.41-8.59,8.26-9.59,1.62-.92,3.67-2.46,3.81-4.31.21-2.51-2.69-5.39-3.48-6l-6.43-5.22a47.09,47.09,0,0,1-17.41-35.9,39.63,39.63,0,0,0-3.72-16.3c-5.54-11.83-18.58-32.53-43.62-38.22A83.07,83.07,0,0,0,45.71,68.07a3.52,3.52,0,0,1-3.9-5.86A90.16,90.16,0,0,1,111,49.27c28,6.35,42.37,29.1,48.45,42.1a46.61,46.61,0,0,1,4.39,19.18,40.06,40.06,0,0,0,14.81,30.54l6.42,5.22c.67.54,6.59,5.52,6.07,12.05-.32,3.94-2.81,7.27-7.41,9.9a14.35,14.35,0,0,0-4.53,3.69l.06.05c3.44,2.52,7,5.64,7.15,9.61.14,3.4-2.23,5.9-4.31,7.7a5.58,5.58,0,0,0-.54.51,8.53,8.53,0,0,1,3.63,12.67,12,12,0,0,1-5,4.9l1,.94a14.11,14.11,0,0,1,4.15,11.44,18.11,18.11,0,0,1-7.6,13.46c-5.23,3.69-13.94,4-40.68,4.37-4.92,0-18.86,2.16-19,11.75A3.52,3.52,0,0,1,114.48,252.83Z" fill="#005898"></path>
    <path d="M214.28,159.62a4.29,4.29,0,0,0,.33,6.07,29.06,29.06,0,0,1,2.25,41,4.3,4.3,0,0,0,6.41,5.74,37.67,37.67,0,0,0-2.92-53.11A4.29,4.29,0,0,0,214.28,159.62Z" fill="#005898"></path>
    <path d="M198.9,172.83a4.3,4.3,0,0,0,.34,6.07,11.59,11.59,0,0,1,.9,16.33,4.3,4.3,0,1,0,6.41,5.73A20.2,20.2,0,0,0,205,172.49,4.31,4.31,0,0,0,198.9,172.83Z" fill="#005898"></path>
    <path d="M238.32,139.21a4.3,4.3,0,1,0-5.74,6.41,56,56,0,0,1,4.33,79,4.3,4.3,0,0,0,6.42,5.73A64.66,64.66,0,0,0,238.32,139.21Z" fill="#005898"></path>
  </g>
</svg>
