<?xml version="1.0" encoding="utf-8"?>
<!-- Generator: Adobe Illustrator 24.3.0, SVG Export Plug-In . SVG Version: 6.00 Build 0)  -->
<svg version="1.1" id="Layer_1" xmlns="http://www.w3.org/2000/svg" xmlns:xlink="http://www.w3.org/1999/xlink" x="0px" y="0px"
	 viewBox="0 0 50.2 49.1" style="enable-background:new 0 0 50.2 49.1;" xml:space="preserve">
<style type="text/css">
	.st0{fill:#107DAB;}
	.st1{fill:#6BCAF1;}
	.st2{fill:#7ACFF3;}
	.st3{fill:#4ABFF0;}
	.st4{fill:#14A5E2;}
	.st5{fill:#34B6ED;}
</style>
<path class="st0" d="M26.8,1.7l22,22c0.4,0.4,0.6,0.9,0.5,1.4c0,0.5-0.2,1.1-0.5,1.5l-22,22c-0.4,0.4-0.9,0.6-1.5,0.5
	c-0.5,0-1-0.2-1.4-0.5l-22-22c-0.4-0.4-0.6-0.9-0.6-1.4c0-0.5,0.2-1,0.6-1.4l22-22c0.3-0.4,0.9-0.7,1.4-0.6
	C25.9,1.1,26.4,1.3,26.8,1.7z M47.3,25.1l-22-22l-22,22l22,22L47.3,25.1z"/>
<path class="st1" d="M25.3,3.1v9.5L12.7,25.2l-9.4-0.1L25.3,3.1z"/>
<path class="st2" d="M25.3,12.6V3.1l22,22h-9.5L25.3,12.6z"/>
<path class="st3" d="M25.3,12.6l12.5,12.5L25.2,37.7L12.7,25.2L25.3,12.6z"/>
<path class="st4" d="M37.8,25.1h9.5l-22,22l-0.1-9.3L37.8,25.1z"/>
<path class="st5" d="M3.3,25.1l9.4,0.1l12.6,12.5l0.1,9.3L3.3,25.1z"/>
</svg>
