<svg xmlns="http://www.w3.org/2000/svg" width="16" height="16" fill="currentColor" class="bi bi-house-down" viewBox="0 0 16 16">
  <path d="M7.293 1.5a1 1 0 0 1 1.414 0L11 3.793V2.5a.5.5 0 0 1 .5-.5h1a.5.5 0 0 1 .5.5v3.293l2.354 2.353a.5.5 0 0 1-.708.708L8 2.207l-5 5V13.5a.5.5 0 0 0 .5.5h4a.5.5 0 0 1 0 1h-4A1.5 1.5 0 0 1 2 13.5V8.207l-.646.647a.5.5 0 1 1-.708-.708z"/>
  <path d="M12.5 9a3.5 3.5 0 1 1 0 7 3.5 3.5 0 0 1 0-7m.354 5.854 1.5-1.5a.5.5 0 0 0-.708-.707l-.646.646V10.5a.5.5 0 0 0-1 0v2.793l-.646-.646a.5.5 0 0 0-.708.707l1.5 1.5a.5.5 0 0 0 .708 0"/>
  <g width="24" height="24" fill="none" stroke="currentColor" stroke-width="2" stroke-linecap="round" stroke-linejoin="round" class="feather feather-corner-up-left"><polyline points="9 14 4 9 9 4"></polyline><path d="M20 20v-7a4 4 0 0 0-4-4H4"></path></g>
</svg>