<?xml version="1.0" encoding="UTF-8"?>
<svg preserveAspectRatio="xMidYMid slice" width="800px" height="800px" xmlns="http://www.w3.org/2000/svg" id="Capa_1" data-name="Capa 1" viewBox="0 0 300 300">
  <title>psychotherapy-icon</title>
  <g>
    <path d="M175.86,252.83h0a3.5,3.5,0,0,1-3.48-3.55c.07-6.66,3.78-11.94,10.72-15.3a37.56,37.56,0,0,1,15.23-3.41c22.85-.33,33.12-.58,36.68-3.09a11.22,11.22,0,0,0,4.63-8.22,7.19,7.19,0,0,0-2-5.8c-2.68-2.53-4.85-4.84-4.4-7.63.4-2.5,2.5-3.48,3.88-4.13a6.13,6.13,0,0,0,3.31-2.69,2.83,2.83,0,0,1,.29-.47,1.41,1.41,0,0,0,.19-.34,1.51,1.51,0,0,0-.84-1.95l-.18-.07a7.06,7.06,0,0,1-4.35-5.26c-.34-2.41.78-4.75,3.32-6.94,1.71-1.48,1.86-2,1.88-2.11s-.2-1.2-4.29-4.19a6.72,6.72,0,0,1-3-6c.34-4.94,6.4-8.59,8.25-9.59,1.62-.92,3.67-2.46,3.82-4.31.2-2.51-2.7-5.39-3.49-6l-6.42-5.22a47.06,47.06,0,0,1-17.41-35.9,39.64,39.64,0,0,0-3.73-16.3c-5.54-11.83-18.57-32.53-43.61-38.22a83.06,83.06,0,0,0-63.73,11.94,3.52,3.52,0,0,1-3.91-5.86,90.17,90.17,0,0,1,69.18-12.94c28,6.35,42.36,29.1,48.45,42.1a46.6,46.6,0,0,1,4.38,19.18A40,40,0,0,0,240,141.09l6.42,5.22c.66.54,6.59,5.52,6.06,12.05-.31,3.94-2.8,7.27-7.4,9.9a14.3,14.3,0,0,0-4.54,3.69l.06.05c3.44,2.52,7,5.64,7.16,9.61.13,3.4-2.24,5.9-4.32,7.7a5.33,5.33,0,0,0-.53.51,8.56,8.56,0,0,1,4.53,11,9.05,9.05,0,0,1-.9,1.68,12.06,12.06,0,0,1-5.06,4.9c.27.27.59.58,1,.94a14.14,14.14,0,0,1,4.15,11.44,18.17,18.17,0,0,1-7.6,13.46c-5.23,3.69-13.94,4-40.68,4.37-4.93,0-18.86,2.16-19,11.75A3.51,3.51,0,0,1,175.86,252.83Z" fill="#005898"></path>
    <g>
      <path d="M119.37,110.24a22.83,22.83,0,0,0-2.46.14,21.58,21.58,0,0,0-19,23.86c0,.23,2.8,23.2,15.65,36h0c3.94,4.65,4.49,8,4.56,8.62A14,14,0,0,0,146,175.67l-5.27-46.31A21.59,21.59,0,0,0,119.37,110.24Zm19.46,59.69a15.56,15.56,0,0,1-1.66.1A14.53,14.53,0,0,1,133,141.57a.07.07,0,0,0,0-.07l-.64-5.64a6.5,6.5,0,0,0-12.85,2l.12,1-4.91.56s-.07,0-.07-.06l-.06-.52a11.85,11.85,0,0,1,5.1-11.37,11.48,11.48,0,0,1,10.82-.94.07.07,0,0,0,.08-.09,12.53,12.53,0,0,0-23.76,6.82c0,.14,1.68,14.18,6.2,19l.68.73-3.63,3.44-.69-.73c-5.67-6-7.46-21.19-7.53-21.84a17.57,17.57,0,0,1,15.44-19.41h0a17.59,17.59,0,0,1,19.41,15.44l1.81,15.87s0,.07-.06.07l-2.13.25a10,10,0,0,0-5.92,2.72A9.53,9.53,0,0,0,138.26,165l1-.12.56,5Z" fill="none"></path>
      <path d="M151,175.1l-5.28-46.31a26.63,26.63,0,0,0-29.39-23.38h0A26.63,26.63,0,0,0,93,134.8c.12,1,3,24.94,17,38.86a13.25,13.25,0,0,1,3.23,5.82h0a19.06,19.06,0,0,0,18.89,16.81,19.86,19.86,0,0,0,2.17-.12A19.06,19.06,0,0,0,151,175.1Zm-17.33,16.1a14.05,14.05,0,0,1-15.54-12.35c-.07-.63-.62-4-4.56-8.62h0c-12.85-12.78-15.63-35.75-15.65-36a21.58,21.58,0,0,1,19-23.86,22.83,22.83,0,0,1,2.46-.14,21.59,21.59,0,0,1,21.4,19.12L146,175.67A14,14,0,0,1,133.69,191.2Z" fill="#005898"></path>
      <path d="M138.26,165a9.53,9.53,0,0,1-7.78-16.24A10,10,0,0,1,136.4,146l2.13-.25s.06,0,.06-.07l-1.81-15.87a17.59,17.59,0,0,0-19.41-15.44h0a17.57,17.57,0,0,0-15.44,19.41c.07.65,1.86,15.84,7.53,21.84l.69.73,3.63-3.44-.68-.73c-4.52-4.78-6.18-18.82-6.2-19a12.53,12.53,0,0,1,23.76-6.82.07.07,0,0,1-.08.09,11.48,11.48,0,0,0-10.82.94,11.85,11.85,0,0,0-5.1,11.37l.06.52s0,.06.07.06l4.91-.56-.12-1a6.5,6.5,0,0,1,12.85-2l.64,5.64a.07.07,0,0,1,0,.07A14.53,14.53,0,0,0,137.17,170a15.56,15.56,0,0,0,1.66-.1l1-.11-.56-5Z" fill="#005898"></path>
    </g>
    <path d="M72.24,144.09a27.24,27.24,0,0,0,5.72,38,3.17,3.17,0,0,0,2.32.58,3.12,3.12,0,0,0,1.38-5.58,21,21,0,0,1-4.42-29.33,3.11,3.11,0,0,0-5-3.7Z" fill="#005898"></path>
    <path d="M85.06,151.19a14.6,14.6,0,0,0,3.07,20.38,3.09,3.09,0,0,0,2.31.58,3.11,3.11,0,0,0,1.38-5.58,8.37,8.37,0,0,1-1.75-11.69,3.11,3.11,0,1,0-5-3.69Z" fill="#005898"></path>
    <path d="M66.4,197.78a3.11,3.11,0,0,0,3.7-5,40.51,40.51,0,0,1-8.52-56.57,3.11,3.11,0,0,0-5-3.7A46.75,46.75,0,0,0,66.4,197.78Z" fill="#005898"></path>
  </g>
</svg>
