<?xml version="1.0" encoding="UTF-8" standalone="no"?>
<svg
   preserveAspectRatio="xMidYMid slice"
   width="800px"
   height="800px"
   id="Capa_1"
   data-name="Capa 1"
   viewBox="0 0 300 300"
   version="1.1"
   sodipodi:docname="listening-head.svg"
   inkscape:version="1.4 (1:1.4+202410161351+e7c3feb100)"
   xmlns:inkscape="http://www.inkscape.org/namespaces/inkscape"
   xmlns:sodipodi="http://sodipodi.sourceforge.net/DTD/sodipodi-0.dtd"
   xmlns="http://www.w3.org/2000/svg"
   xmlns:svg="http://www.w3.org/2000/svg">
  <defs
     id="defs7" />
  <sodipodi:namedview
     id="namedview7"
     pagecolor="#ffffff"
     bordercolor="#000000"
     borderopacity="0.25"
     inkscape:showpageshadow="2"
     inkscape:pageopacity="0.0"
     inkscape:pagecheckerboard="0"
     inkscape:deskcolor="#d1d1d1"
     inkscape:zoom="0.65053824"
     inkscape:cx="-108.3718"
     inkscape:cy="299.75179"
     inkscape:window-width="1849"
     inkscape:window-height="1131"
     inkscape:window-x="71"
     inkscape:window-y="32"
     inkscape:window-maximized="1"
     inkscape:current-layer="Capa_1" />
  <title
     id="title1">psychotherapy-icon</title>
  <g
     id="g7">
    <path
       d="M175.86,252.83h0a3.5,3.5,0,0,1-3.48-3.55c.07-6.66,3.78-11.94,10.72-15.3a37.56,37.56,0,0,1,15.23-3.41c22.85-.33,33.12-.58,36.68-3.09a11.22,11.22,0,0,0,4.63-8.22,7.19,7.19,0,0,0-2-5.8c-2.68-2.53-4.85-4.84-4.4-7.63.4-2.5,2.5-3.48,3.88-4.13a6.13,6.13,0,0,0,3.31-2.69,2.83,2.83,0,0,1,.29-.47,1.41,1.41,0,0,0,.19-.34,1.51,1.51,0,0,0-.84-1.95l-.18-.07a7.06,7.06,0,0,1-4.35-5.26c-.34-2.41.78-4.75,3.32-6.94,1.71-1.48,1.86-2,1.88-2.11s-.2-1.2-4.29-4.19a6.72,6.72,0,0,1-3-6c.34-4.94,6.4-8.59,8.25-9.59,1.62-.92,3.67-2.46,3.82-4.31.2-2.51-2.7-5.39-3.49-6l-6.42-5.22a47.06,47.06,0,0,1-17.41-35.9,39.64,39.64,0,0,0-3.73-16.3c-5.54-11.83-18.57-32.53-43.61-38.22a83.06,83.06,0,0,0-63.73,11.94,3.52,3.52,0,0,1-3.91-5.86,90.17,90.17,0,0,1,69.18-12.94c28,6.35,42.36,29.1,48.45,42.1a46.6,46.6,0,0,1,4.38,19.18A40,40,0,0,0,240,141.09l6.42,5.22c.66.54,6.59,5.52,6.06,12.05-.31,3.94-2.8,7.27-7.4,9.9a14.3,14.3,0,0,0-4.54,3.69l.06.05c3.44,2.52,7,5.64,7.16,9.61.13,3.4-2.24,5.9-4.32,7.7a5.33,5.33,0,0,0-.53.51,8.56,8.56,0,0,1,4.53,11,9.05,9.05,0,0,1-.9,1.68,12.06,12.06,0,0,1-5.06,4.9c.27.27.59.58,1,.94a14.14,14.14,0,0,1,4.15,11.44,18.17,18.17,0,0,1-7.6,13.46c-5.23,3.69-13.94,4-40.68,4.37-4.93,0-18.86,2.16-19,11.75A3.51,3.51,0,0,1,175.86,252.83Z"
       fill="#005898"
       id="path1" />
    <g
       id="g4"
       transform="matrix(0.79570548,-0.0486069,0.04241009,0.69426212,7.6630591,65.420941)">
      <path
         d="m 119.37,110.24 a 22.83,22.83 0 0 0 -2.46,0.14 21.58,21.58 0 0 0 -19,23.86 c 0,0.23 2.8,23.2 15.65,36 v 0 c 3.94,4.65 4.49,8 4.56,8.62 A 14.030952,14.030952 0 0 0 146,175.67 l -5.27,-46.31 a 21.59,21.59 0 0 0 -21.36,-19.12 z m 19.46,59.69 a 15.56,15.56 0 0 1 -1.66,0.1 14.53,14.53 0 0 1 -4.17,-28.46 0.07,0.07 0 0 0 0,-0.07 l -0.64,-5.64 a 6.5023553,6.5023553 0 0 0 -12.85,2 l 0.12,1 -4.91,0.56 c 0,0 -0.07,0 -0.07,-0.06 l -0.06,-0.52 a 11.85,11.85 0 0 1 5.1,-11.37 11.48,11.48 0 0 1 10.82,-0.94 0.07,0.07 0 0 0 0.08,-0.09 12.53,12.53 0 0 0 -23.76,6.82 c 0,0.14 1.68,14.18 6.2,19 l 0.68,0.73 -3.63,3.44 -0.69,-0.73 c -5.67,-6 -7.46,-21.19 -7.53,-21.84 a 17.57,17.57 0 0 1 15.44,-19.41 v 0 a 17.59,17.59 0 0 1 19.41,15.44 l 1.81,15.87 c 0,0 0,0.07 -0.06,0.07 l -2.13,0.25 a 10,10 0 0 0 -5.92,2.72 9.53,9.53 0 0 0 7.85,16.2 l 1,-0.12 0.56,5 z"
         fill="none"
         id="path2" />
      <path
         d="m 151,175.1 -5.28,-46.31 a 26.63,26.63 0 0 0 -29.39,-23.38 v 0 A 26.63,26.63 0 0 0 93,134.8 c 0.12,1 3,24.94 17,38.86 a 13.25,13.25 0 0 1 3.23,5.82 v 0 a 19.06,19.06 0 0 0 18.89,16.81 19.86,19.86 0 0 0 2.17,-0.12 A 19.06,19.06 0 0 0 151,175.1 Z m -17.33,16.1 a 14.05,14.05 0 0 1 -15.54,-12.35 c -0.07,-0.63 -0.62,-4 -4.56,-8.62 v 0 c -12.85,-12.78 -15.63,-35.75 -15.65,-36 a 21.58,21.58 0 0 1 19,-23.86 22.83,22.83 0 0 1 2.46,-0.14 21.59,21.59 0 0 1 21.4,19.12 l 5.22,46.32 a 14,14 0 0 1 -12.31,15.53 z"
         fill="#005898"
         id="path3" />
      <path
         d="m 138.26,165 c -8.98421,1.01834 -14.20375,-9.87694 -7.78,-16.24 1.60877,-1.5567 3.69336,-2.52857 5.92,-2.76 l 2.13,-0.25 c 0,0 0.06,0 0.06,-0.07 l -1.81,-15.87 c -1.12347,-9.60847 -9.79503,-16.5064 -19.41,-15.44 v 0 c -9.61422,1.11311 -16.51779,9.79175 -15.44,19.41 0.07,0.65 1.86,15.84 7.53,21.84 l 0.69,0.73 c 0,0 1.84035,1.23699 3.17456,-0.0439 1.33421,-1.28089 0.45544,-3.3961 0.45544,-3.3961 l -0.68,-0.73 c -4.52,-4.78 -6.18,-18.82 -6.2,-19 -0.69966,-6.08552 3.10316,-11.78481 8.99102,-13.47484 5.88785,-1.69004 12.13451,1.12468 14.76898,6.65484 0.0162,0.0506 -0.0278,0.10011 -0.08,0.09 -3.53618,-1.52043 -7.599,-1.16747 -10.82,0.94 -3.71641,2.51804 -5.69087,6.91993 -5.1,11.37 l 0.06,0.52 c 0,0 0,0.06 0.07,0.06 0,0 0.88571,1.88903 2.58475,1.49042 C 119.0738,140.4318 119.7,138.78 119.7,138.78 l -0.12,-1 c -0.55229,-3.54843 1.87657,-6.87271 5.425,-7.425 3.54843,-0.55228 6.87271,1.87657 7.425,5.425 l 0.64,5.64 c 0.0125,0.0217 0.0125,0.0483 0,0.07 -7.0047,1.98276 -11.46091,8.84319 -10.42465,16.04897 1.03626,7.20578 7.24509,12.53248 14.52465,12.46103 0.55472,-0.004 1.10884,-0.0371 1.66,-0.1 l 0.55441,-0.15954 c 0,0 0.60857,-0.96884 0.38985,-2.45311 -0.21873,-1.48426 -0.86682,-2.30257 -0.86682,-2.30257 z"
         fill="#005898"
         id="path4"
         sodipodi:nodetypes="ccccccssccczcccscccccczccscccsccczcc" />
    </g>
    <path
       d="m 31.200825,120.31961 a 27.24,27.24 0 0 0 25.958657,-28.334874 3.17,3.17 0 0 0 -1.007228,-2.168939 3.12,3.12 45 0 0 -5.207241,2.434218 21,21 0 0 1 -20.032803,21.873975 3.1100744,3.1100744 0 0 0 0.26526,6.21449 z"
       fill="#005898"
       id="path5" />
    <path
       d="m 28.664323,105.88604 a 14.6,14.6 45 0 0 13.920605,-15.198233 3.09,3.09 0 0 0 -1.000935,-2.161158 3.11,3.11 0 0 0 -5.207228,2.434212 8.37,8.37 0 0 1 -7.991782,8.709214 3.11,3.11 0 1 0 0.273063,6.208165 z"
       fill="#005898"
       id="path6" />
    <path
       d="M 76.62868,91.11294 A 3.1100677,3.1100677 0 0 0 70.414208,91.378213 40.51,40.51 0 0 1 31.772913,133.56359 3.1100678,3.1100678 0 0 0 32.0382,139.77806 46.75,46.75 45 0 0 76.62868,91.11294 Z"
       fill="#005898"
       id="path7" />
  </g>
  <path
     d="m 199.61564,133.05765 c -2.9072,0.87249 -5.98473,-2.37417 -5.88794,-7.90905 0.3548,-1.72107 1.0948,-3.71674 2.20968,-4.30653 1.11488,-0.58979 2.88196,2.21231 2.88196,2.21231 0,0 -0.51357,-2.79118 -0.52188,-2.83895 -2.69197,-10.86025 -20.81732,3.35331 -21.17742,10.95041 0.33718,1.40366 1.34865,4.48447 7.85716,5.78313 6.50851,1.29866 11.94386,0.89181 11.94386,0.89181 -5.66659,-1.26094 -8.6003,-0.58748 -13.75643,-3.85005 -1.2947,-1.47695 -0.92862,-2.93589 -0.67618,-4.11499 0.47218,-1.79326 4.59686,-8.54931 9.93775,-11.26595 0.0126,0.0129 0.0156,0.0313 0.008,0.0479 -2.52226,3.04693 -4.10208,6.43948 -3.07873,11.13771 1.05578,4.84711 4.02909,8.88067 9.73576,7.82561 0.43509,-0.0792 0.86611,-0.1786 1.29124,-0.29793 0,0 1.66803,0.48835 2.03658,-2.78942 0.36855,-3.27777 -2.1016,-7.45553 -2.1016,-7.45553 0,0 0.47554,2.65715 -0.7023,5.97952 0,0 2.90769,-0.87249 4.9e-4,0 z"
     fill="#005898"
     id="eye-1"
     style="stroke-width:0.744641"
     sodipodi:nodetypes="zczccczcccccscczczz" />
</svg>
