<svg xmlns="http://www.w3.org/2000/svg" version="1.1" viewBox="-5.0 -10.0 110.0 135.0">
 <path d="m60.582 84.258v-12.098c1.0469 2.6836 4.2656 4.4531 4.7656 1.9453 0.23047-1.1406 6.2188-22.699 8.1758-29.809l26.465-29.359v-14.941h-15.395l-25.855 31.125-14.402 5.4258c-2.9336 0.77734-5.1875 3.0195-5.1875 3.0195s-9.3242 7.9062-10.664 10.973c-1.3398 3.0625-1.707 17.805-1.8789 20.527s3.9883 1.6562 5.9297-1.0117c0.12891-0.17578 0.23828-0.40234 0.34375-0.64844v15.758c0 1.4258 1.5547 2.8672 3.3203 3.2695l-35.84 0.003906v3.332h78.906v8.2266h3.332v-11.559h-25.32c1.8906-0.44531 3.3047-2.1445 3.3047-4.1797zm-25.738-26.488c2.0586-2.6914 7.668-6 10.844-6.7969 4.0508-1.0117 7.6328 0.085938 7.6328 0.085938s4.8906 1.1367 6.0117 5.2031c0.54297 1.9688 0.72656 4.7812 0.78516 6.7109-0.70313-1.4141-2.1367-2.3945-3.8086-2.3945l-19.164 0.003906c-1.1602 0-2.3086 0.5-3.1289 1.5195 0.17969-2.0117 0.37891-3.7461 0.82812-4.332zm22.406 7.1133v19.371c0 0.53516-0.42188 0.96875-0.94141 0.96875l-19.164 0.003906c-0.42969 0-0.77734-0.26562-0.9375-0.43359v-19c0-0.44141 0.066407-1.8828 0.9375-1.8828h19.164c0.51562 0.003906 0.94141 0.4375 0.94141 0.97266z"/>
 <path d="m20.781 33.234-2.1172-2.5742c-4.4492 3.6641-6.5508 10.469-6.0781 15.543l-4.4531-0.023437 6.1328 7.3398 6.207-7.2734-4.5312-0.023438c-0.44922-3.7617 0.96094-9.7891 4.8398-12.988z"/>
<text x="0.0" y="117.5" font-size="5.0" font-weight="bold" font-family="Arbeit Regular, Helvetica, Arial-Unicode, Arial, Sans-serif" fill="#000000">Created by Hayashi Fumihiro</text><text x="0.0" y="122.5" font-size="5.0" font-weight="bold" font-family="Arbeit Regular, Helvetica, Arial-Unicode, Arial, Sans-serif" fill="#000000">from Noun Project</text></svg>