<svg xmlns="http://www.w3.org/2000/svg" version="1.1" viewBox="-5.0 -10.0 110.0 135.0">
 <path d="m36.953 9.3672c-2.4766 0-4.7773 1.3398-6.0195 3.4844l-23.762 41.133c-2.6406 4.5703 0.83984 10.586 6.1172 10.582h27.32c0.27344 14.398 12.105 26.043 26.57 26.043 14.633 0 26.551-11.918 26.551-26.551 0-14.633-11.918-26.574-26.551-26.574-3.1797 0-6.2383 0.56641-9.0703 1.5977l-15.129-26.234c-1.2422-2.1367-3.5469-3.4805-6.0234-3.4805zm0 6.25c0.25391 0 0.47656 0.125 0.60547 0.34766l14.984 25.941c-5.6523 3.75-9.8008 9.5938-11.316 16.414h-27.938l0.003907-0.003906h-0.023438c-0.76562 0-1.0547-0.53516-0.67188-1.1953l23.738-41.156c0.12891-0.22266 0.36719-0.34766 0.62109-0.34766zm30.227 28.117c11.254 0 20.301 9.0703 20.301 20.324s-9.0469 20.301-20.301 20.301c-11.254 0-20.324-9.0469-20.324-20.301 0-0.66797 0.023437-1.3281 0.09375-1.9766 0.027343-0.097656 0.050781-0.19922 0.070312-0.30469 0.78125-6.8633 4.9961-12.832 11.188-15.895v0.003907c0.17188-0.089844 0.33594-0.19141 0.48828-0.30859 2.582-1.1836 5.457-1.8438 8.4883-1.8438z"/>
<text x="0.0" y="117.5" font-size="5.0" font-weight="bold" font-family="Arbeit Regular, Helvetica, Arial-Unicode, Arial, Sans-serif" fill="#000000">Created by dokodemo</text><text x="0.0" y="122.5" font-size="5.0" font-weight="bold" font-family="Arbeit Regular, Helvetica, Arial-Unicode, Arial, Sans-serif" fill="#000000">from Noun Project</text></svg>