<svg xmlns="http://www.w3.org/2000/svg" version="1.1" viewBox="-5.0 -10.0 110.0 135.0">
 <path d="m64.59 31.059c6 0 10.941-4.8242 10.941-10.824s-4.8242-10.824-10.941-10.824c-6 0-10.824 4.8242-10.824 10.824 0 5.8828 4.8242 10.824 10.824 10.824z"/>
 <path d="m91.059 46.707c0-6.5898-7.4102-9.5312-10.707-10.707-3.7656-1.4102-6.4688-2.1172-15.059-2.2344-11.176-0.23438-14.703 1.5273-18.352 2.4688-3.6484 1.5312-8.707 4.9414-8.5898 10.234-0.23437 0 0 25.883 0 25.883h-12.707v-7.1758c0-1.7656-1.4102-3.1758-3.1758-3.1758h-11.176c-1.7656 0-3.1758 1.4102-3.1758 3.1758v11.176c0 1.7656 1.4102 3.1758 3.1758 3.1758h0.23438c0.82422 3.0586 4.4688 3.293 6.8242 3.4102 3.4102 0.23438 25.531-0.11719 25.531-0.11719s4.1172-0.23437 4.2344-3.4102c0-2.707-0.11719-26.469 0-26.59-0.11719-1.1758 1.293-1.5312 1.293 0 0 0.46875-0.23438 39.293 0 39.176l30.707 0.11719v-39.883c0-0.46875 0.35156-0.82422 0.82422-0.82422 0.46875 0 0.82422 0.35156 0.82422 0.82422v39.883h9.1758c0.11719 0.12109 0.23438-38.82 0.11719-45.406zm-68.824 25.645v3.8828h-10.59-0.23438v-10.941h10.824v7.0586z"/>
<text x="0.0" y="117.5" font-size="5.0" font-weight="bold" font-family="Arbeit Regular, Helvetica, Arial-Unicode, Arial, Sans-serif" fill="#000000">Created by Hayashi Fumihiro</text><text x="0.0" y="122.5" font-size="5.0" font-weight="bold" font-family="Arbeit Regular, Helvetica, Arial-Unicode, Arial, Sans-serif" fill="#000000">from Noun Project</text></svg>