<svg xmlns="http://www.w3.org/2000/svg" version="1.1" viewBox="-5.0 -10.0 110.0 135.0">
 <path d="m81.766 17.176c-2.8242-1.5312-6.3516-0.46875-7.8828 2.3516-1.5312 2.8242-0.46875 6.3516 2.3516 7.8828 2.8242 1.5312 6.3516 0.46875 7.8828-2.3516 1.4141-2.8242 0.47266-6.3516-2.3516-7.8828z"/>
 <path d="m67.648 57.766c-0.82422 0.70703-1.6484 1.0586-2.2344 1.4102-0.46875 0.23438-0.82422 0.23438-1.0586 0.35156-0.11719 0.23438-0.70703 1.293-1.293 2.4688-0.35156 0.82422-0.82422 1.6484-1.1758 2.2344l4 6.9414s-5.6484 13.176-5.6484 13.293c-0.70703 3.8828 2.8242 4.9414 5.0586 5.0586 0 0 6.707-14.941 7.0586-15.883 0.94141-2.1172 0.94141-2.5898 0.23438-4.2344-1.0586-2.582-3.8828-9.2891-4.9414-11.641z"/>
 <path d="m74.59 28.59c-3.0586-1.6484-6.8242-0.82422-8.9414 1.7656-16.941 10.941-19.059 12.234-22 14.234-1.0586 0.70703-1.4102 1.6484-1.4102 2.5898-0.70703 0.35156-1.4102 1.0586-1.8828 2-0.58984 0.94141-10.941 20.117-14.824 27.293v-10.824c0-0.46875-0.35156-0.82422-0.82422-0.82422h-24.707v1.6484h23.883v14.469h-2.1172c-0.58984-3.7656-3.8828-6.5898-7.7656-6.5898s-7.1758 2.8242-7.7656 6.5898h-6.2344v1.6484h6.1172c0.11719 4.2344 3.6484 7.5312 7.8828 7.5312s7.7656-3.4102 7.8828-7.5312h2.8242 0.11719 3.293c0.35156 0 0.58984-0.11719 0.70703-0.46875 0.58984-1.1758 15.176-28.941 16.117-30.707 0.11719-0.23437 0.11719-0.35156 0.23438-0.58984 0.70703 0.11719 1.4102 0.11719 2.2344-0.35156 0.46875-0.35156 5.8828-3.7656 11.059-7.1758 0 0.11719-0.11719 0.11719-0.11719 0.23438l4.1172-2.8242 2.8242-2 1.8828-1.293c0.11719-0.11719 0.35156-0.11719 0.46875-0.11719 0.23438 0 0.46875 0.11719 0.70703 0.35156 0.23438 0.35156 0.11719 0.94141-0.23437 1.1758l-1.7656 1.1758-9.7656 6.707c-1.6484 3.5312-0.82422 6.5898 0 8.3516-2.2344 4.3516-12.824 24.824-14 27.41-2.4688 5.293 4.2344 6.9414 4.2344 6.9414s9.0586-17.176 14.117-26.707v-0.11719l2-4 0.11719-0.11719c0.11719-0.11719 0.35156-0.35156 0.58984-0.35156 0.11719 0 2.9414-0.35156 5.293-4.2344 0.23438-0.46875 0.46875-0.82422 0.70703-1.293 0.58984-0.82422 8.1172-14.59 8.1172-14.59 1.4141-3.6484 0.12109-7.6484-3.1719-9.4102zm-60.473 59.762c-3.293 0-6-2.5898-6.2344-5.8828v-0.35156c0-0.46875 0.11719-0.94141 0.11719-1.293 0.58984-2.8242 3.0586-4.9414 6.1172-4.9414 2.9414 0 5.4102 2.1172 6.1172 4.9414 0.11719 0.46875 0.11719 0.94141 0.11719 1.293v0.35156c-0.23437 3.2969-2.9414 5.8828-6.2344 5.8828zm29.293-37.762c-0.82422 1.6484-13.883 26.707-15.883 30.234h-2c0-0.46875 0-0.82422 0.11719-0.94141 0.94141-1.7656 15.531-28.707 16.234-29.883 0.35156-0.58984 0.58984-0.94141 0.94141-1.1758 0.23438 0.46875 0.58984 0.82422 0.94141 1.0586-0.11328 0.23438-0.23047 0.46875-0.35156 0.70703z"/>
<text x="0.0" y="117.5" font-size="5.0" font-weight="bold" font-family="Arbeit Regular, Helvetica, Arial-Unicode, Arial, Sans-serif" fill="#000000">Created by Hayashi Fumihiro</text><text x="0.0" y="122.5" font-size="5.0" font-weight="bold" font-family="Arbeit Regular, Helvetica, Arial-Unicode, Arial, Sans-serif" fill="#000000">from Noun Project</text></svg>