<svg xmlns="http://www.w3.org/2000/svg" version="1.1" viewBox="-5.0 -10.0 110.0 135.0">
 <path d="m50.809 20.656c0 3.082-2.5 5.5781-5.5781 5.5781-3.082 0-5.5781-2.4961-5.5781-5.5781s2.4961-5.5781 5.5781-5.5781c3.0781 0 5.5781 2.4961 5.5781 5.5781z"/>
 <path d="m42.516 27.773c0.45703 0.21875 1.75 0.9375 3.1719 2.168 2.668 1.8359 7.3438 5.5898 7.3438 5.5898s5.043-0.41016 7.3594-0.55859c2.7148-0.48047 6.2812-0.09375 7.1172 1.1172 0.17969 0.26172 0.125 0.5-0.125 0.45703-5.0234-0.042969-4.1094 3.2539-3.9531 3.3984 0.36328 0.32813-0.5 0.5625-0.5 0.5625l-11.062 1.1914s-1.3438 0.03125-1.8984-0.19922c-0.9375-0.38672-5.6445-3.7539-5.6445-3.7539l-6.1602 16.879s7.0234 12.934 8.2773 15.355c0.61719 1.1953 0.35547 2.75 0.16797 3.3359-0.61719 1.9141-5.3398 14.52-6.0898 16.191-1.9766 4.3906-7.5938 1.582-6.4258-1.5898l5.8086-16.219s-7.5547-12.988-7.5586-13.066c-0.003906-0.17187 3.9922 10.602 4.0898 11.016 0.33594 1.418 0.14844 2.0117-0.25 3.0039-1.0352 2.5938-8.0547 16.664-8.5117 17.523-1.5 2.8359-7.5938 1.75-5.7578-3.5078l7.9258-16.352s-5.7422-13.516-5.7578-13.598c-0.33203-2.1719-0.082031-2.6992-0.082031-3.3398 0-0.26562 7.5078-20.855 7.5078-20.855-0.007812 0.003906 3.332-8.4219 11.008-4.75z"/>
 <path d="m67.172 53.438c-0.27344 0.13281-5.5352 3.1719-7.1445 4.1016l-0.027344 0.015626c-0.53125 0.33594-0.87891 0.83203-1.0117 1.4297-0.13281 0.60547-0.015625 1.2852 0.30469 1.7734l3.4141 5.9102 0.73438 1.2812c0.53125 0.91797 1.5977 1.2422 2.7227 0.82031 0.26172-0.097656 1.3867-0.72656 6.5547-3.7539l0.97656-0.57031c0.67578-0.39062 1.3203-1.5156 0.65234-2.8008l-1.75-2.9883-2.5547-4.3711c-0.62109-1.1875-1.9141-1.3281-2.8711-0.84766zm0.74609 1.4883c0.21094-0.10547 0.49219-0.16797 0.64844 0.13281 0 0.003906 2.5938 4.4453 2.5938 4.4453l1.707 2.9062c0.070312 0.13672 0.09375 0.24609 0.09375 0.33203 0 0.17578-0.10156 0.25391-0.10547 0.26172l-0.98047 0.57031c-1.6094 0.94141-5.875 3.4414-6.3164 3.6406-0.17578 0.0625-0.52734 0.15234-0.67188-0.10156l-0.73047-1.2773-3.4609-5.9883c-0.042968-0.066406-0.09375-0.20312-0.09375-0.35938 0-0.050781 0.003907-0.10156 0.015626-0.15234 0.035156-0.16016 0.125-0.28125 0.27344-0.375 0.050781-0.03125 7.0273-4.0352 7.0273-4.0352z"/>
<text x="0.0" y="117.5" font-size="5.0" font-weight="bold" font-family="Arbeit Regular, Helvetica, Arial-Unicode, Arial, Sans-serif" fill="#000000">Created by Hayashi Fumihiro</text><text x="0.0" y="122.5" font-size="5.0" font-weight="bold" font-family="Arbeit Regular, Helvetica, Arial-Unicode, Arial, Sans-serif" fill="#000000">from Noun Project</text></svg>