<svg xmlns="http://www.w3.org/2000/svg" xmlns:xlink="http://www.w3.org/1999/xlink" version="1.1" x="0px" y="0px" viewBox="0 0 100 125" style="enable-background:new 0 0 100 100;" xml:space="preserve"><g><g><g><path d="M61.5,30.8c-0.2,0-0.4-0.1-0.6-0.2L36.3,16.4c-0.4-0.2-0.6-0.6-0.6-1c0-0.4,0.2-0.8,0.6-1L60.9,0.2     c0.4-0.2,0.8-0.2,1.2,0l24.6,14.2c0.4,0.2,0.6,0.6,0.6,1c0,0.4-0.2,0.8-0.6,1L62.1,30.7C61.9,30.8,61.7,30.8,61.5,30.8z      M39.3,15.4l22.3,12.8l22.3-12.8L61.5,2.6L39.3,15.4z"/></g><g><path d="M61.5,59.3c-0.2,0-0.4-0.1-0.6-0.2L36.3,44.9c-0.4-0.2-0.6-0.6-0.6-1V15.4c0-0.7,0.5-1.2,1.2-1.2     c0.7,0,1.2,0.5,1.2,1.2v27.8l23.4,13.5L85,43.2V15.4c0-0.7,0.5-1.2,1.2-1.2c0.7,0,1.2,0.5,1.2,1.2v28.4c0,0.4-0.2,0.8-0.6,1     L62.1,59.1C61.9,59.2,61.7,59.3,61.5,59.3z"/></g><g><path d="M61.5,49.7c-0.7,0-1.2-0.5-1.2-1.2V29.6c0-0.7,0.5-1.2,1.2-1.2c0.7,0,1.2,0.5,1.2,1.2v18.9     C62.7,49.2,62.2,49.7,61.5,49.7z"/></g></g><g><g><path d="M58.2,82.5h-5.6c-0.7,0-1.2-0.5-1.2-1.2s0.5-1.2,1.2-1.2h5.6c5.1,0,10.1-1.5,14.3-4.4l1.7-1.1     c0.9-0.6,1.3-1.9,0.8-2.8l0,0c-1.7-1.6-4.3-0.7-7.1,0.2c-0.4,0.1-0.9,0.3-1.3,0.4c-6.8,2.1-12.3-0.4-12.6-0.5c0,0-0.1,0-0.1-0.1     c-12.9-8.1-25-9-34.1-2.6c-0.5,0.4-1.3,0.3-1.7-0.3c-0.4-0.5-0.3-1.3,0.3-1.7c9.9-7,22.9-6.1,36.6,2.5c0.6,0.2,5.2,2.1,10.8,0.4     c0.4-0.1,0.9-0.3,1.3-0.4c3.1-1,6.7-2.2,9.5,0.4c0.1,0.1,0.2,0.2,0.2,0.2c0.1,0.1,0.1,0.2,0.2,0.3c1.2,2.1,0.5,4.8-1.5,6.1     l-1.7,1.1C69.2,80.9,63.8,82.5,58.2,82.5z"/></g><g><path d="M55.7,93.6c-0.6,0-1.2,0-1.9-0.1c-22-1.3-34.8-2.6-34.9-2.6c-0.7-0.1-1.1-0.7-1.1-1.3     c0.1-0.7,0.7-1.1,1.3-1.1c0.1,0,12.9,1.3,34.8,2.6c5.6,0.3,11.2-0.9,16.2-3.6l25.2-14.2c0.9-0.5,1.4-1.5,1.3-2.5     c-0.1-1.1-0.6-2.4-3.2-3c-1.8-0.5-4.4,0.7-6.5,1.6l-0.6,0.3l-6.2,2.9c-0.6,0.3-1.3,0-1.6-0.6c-0.3-0.6,0-1.3,0.6-1.6l6.9-3.1     c2.4-1,5.4-2.3,8-1.7c3.7,1,4.7,3.3,4.9,5.1c0.2,2-0.8,3.9-2.5,4.8L71.4,89.7C66.5,92.2,61.1,93.6,55.7,93.6z"/></g><g><path d="M16,100H2c-0.7,0-1.2-0.5-1.2-1.2s0.5-1.2,1.2-1.2h14c0.8,0,1.5-0.7,1.5-1.5V60.8     c0-0.8-0.7-1.5-1.5-1.5H2c-0.7,0-1.2-0.5-1.2-1.2c0-0.7,0.5-1.2,1.2-1.2h14c2.1,0,3.9,1.7,3.9,3.9v35.3     C19.9,98.3,18.2,100,16,100z"/></g></g></g><text x="0" y="115" fill="#000000" font-size="5px" font-weight="bold" font-family="'Helvetica Neue', Helvetica, Arial-Unicode, Arial, Sans-serif">Created by N.Style</text><text x="0" y="120" fill="#000000" font-size="5px" font-weight="bold" font-family="'Helvetica Neue', Helvetica, Arial-Unicode, Arial, Sans-serif">from the Noun Project</text></svg>