<svg xmlns="http://www.w3.org/2000/svg" xmlns:xlink="http://www.w3.org/1999/xlink" xmlns:serif="http://www.serif.com/" viewBox="0 0 24 30" version="1.1" xml:space="preserve" style="" x="0px" y="0px" fill-rule="evenodd" clip-rule="evenodd" stroke-linejoin="round" stroke-miterlimit="2"><g><path d="M11,22.75c0.966,0 1.75,-0.782 1.75,-1.75c-0,0 -0,-8 -0,-8c-0,-0.967 -0.784,-1.75 -1.75,-1.75c-0,0 -8,0 -8,0c-0.966,0 -1.75,0.783 -1.75,1.75l-0,8c-0,0.968 0.784,1.75 1.75,1.75l8,0Zm-0,-1.5l-8,0c-0.138,0 -0.25,-0.111 -0.25,-0.25c-0,0 -0,-8 -0,-8c-0,-0.138 0.112,-0.25 0.25,-0.25l8,0c0.138,0 0.25,0.112 0.25,0.25l-0,8c-0,0.139 -0.112,0.25 -0.25,0.25Z"/><path d="M16.09,12.665c0.299,0.061 0.599,0.085 0.91,0.085c3.174,-0 5.75,-2.576 5.75,-5.75c0,-3.173 -2.576,-5.75 -5.75,-5.75c-3.174,-0 -5.75,2.577 -5.75,5.75c0,0.346 0.026,0.682 0.098,1.003c0.09,0.404 0.491,0.659 0.895,0.569c0.404,-0.09 0.659,-0.491 0.569,-0.895c-0.048,-0.217 -0.062,-0.443 -0.062,-0.677c-0,-2.345 1.904,-4.25 4.25,-4.25c2.346,-0 4.25,1.905 4.25,4.25c0,2.346 -1.904,4.25 -4.25,4.25c-0.209,-0 -0.409,-0.014 -0.61,-0.055c-0.406,-0.083 -0.802,0.18 -0.885,0.585c-0.083,0.406 0.18,0.802 0.585,0.885Z"/><path d="M11.469,17.911l0.966,0.966c0.952,0.951 2.578,0.518 2.928,-0.784l1.601,-5.968l1.052,-3.938c0.349,-1.301 -0.842,-2.493 -2.145,-2.141c0.001,-0 -3.985,1.07 -3.985,1.07l-5.916,1.582c-1.302,0.348 -1.738,1.975 -0.786,2.928l0.906,0.905c0.293,0.292 0.768,0.292 1.06,-0.001c0.293,-0.293 0.293,-0.768 -0,-1.06l-0.904,-0.904c-0.137,-0.136 -0.075,-0.369 0.112,-0.419l5.916,-1.582l3.988,-1.071c0.186,-0.05 0.355,0.12 0.305,0.305l-1.052,3.937c0,0 -1.6,5.968 -1.6,5.968c-0.051,0.186 -0.283,0.248 -0.419,0.112c0,-0 -0.966,-0.966 -0.966,-0.966c-0.293,-0.293 -0.768,-0.293 -1.061,-0c-0.292,0.293 -0.292,0.768 0,1.061Z"/></g><text x="0" y="39" fill="#000000" font-size="5px" font-weight="bold" font-family="'Helvetica Neue', Helvetica, Arial-Unicode, Arial, Sans-serif">Created by Rolas Design</text><text x="0" y="44" fill="#000000" font-size="5px" font-weight="bold" font-family="'Helvetica Neue', Helvetica, Arial-Unicode, Arial, Sans-serif">from the Noun Project</text></svg>