<svg xmlns="http://www.w3.org/2000/svg" version="1.1" viewBox="-5.0 -10.0 110.0 135.0">
 <path d="m70.629 68.641c-4.3477-2.1953-4.1484-6.2031-3.9219-10.844 0.19141-3.8984 0.41016-8.3125-1.7266-13.117-3.1172-7.0078-2.8359-12.367 0.76172-15.238v-17.484c0-1.0039-0.37891-1.9531-1.0664-2.668-0.70312-0.72266-1.6328-1.1211-2.6211-1.1211-0.99219 0-1.9219 0.39844-2.6172 1.1172-0.6875 0.71484-1.0664 1.6602-1.0664 2.668-0.003906 1.1562-0.0625 28.336 0 29.688-0.054688 0.72266-0.75391 0.90625-1.1602 0.88672-0.26563-0.011719-0.88672-0.125-0.86328-0.90234 0.0625-2.0508 0.003906-24.359 0-25.309 0-1.0039-0.38281-1.9531-1.0742-2.668-0.69531-0.72266-1.625-1.1211-2.6133-1.1211-0.98828 0-1.918 0.39844-2.6172 1.1211-0.6875 0.71484-1.0664 1.6641-1.0664 2.668-0.003906 1.082-0.054687 26.527 0 28.91 0.007813 0.34375-0.10156 0.57031-0.34375 0.71094-0.35156 0.20703-0.91016 0.1875-1.293-0.039062-0.39453-0.23438-0.38672-0.55859-0.38281-0.66797 0.0625-2.1367 0.003907-17.707 0-18.367 0-1.0078-0.37891-1.9531-1.0703-2.6641-0.69141-0.71875-1.6211-1.1172-2.6133-1.1172-0.99219 0-1.9219 0.39844-2.6133 1.125-0.6875 0.70703-1.0664 1.6562-1.0664 2.6641v33.078c0 9.5469 3.8242 19.23 9.9844 25.406-0.003906 0.61719-0.007813 14.598-0.007813 14.598l25.637 0.03125s-0.16016-11.805 0.09375-14.535c3.8125-1.918 7.1445-6.8125 9.9375-12.68-1.125-2.3594-2.0859-4.9609-2.7969-7.8008-2 2.2227-6.625 6.293-11.812 3.6719z"/>
 <path d="m99.965 86.512c0.007812 0.003906 0.015625 0.007812 0.023437 0.011719v-0.48828c-0.003906-0.003906-0.015625-0.007812-0.023437-0.011718z"/>
 <path d="m73.047 28.023c0.71484 0.23047 1.4062 0.57031 2.0742 0.99609v-12.691c0-1.0039-0.37891-1.9531-1.0703-2.668-0.69922-0.72266-1.6289-1.1211-2.6172-1.1211-0.99219 0-1.918 0.39844-2.6133 1.1211-0.6875 0.71484-1.0703 1.6602-1.0703 2.668 0 0.11719 0.007812 5.9141 0.011719 11.93 1.7031-0.71484 3.5039-0.80469 5.2852-0.23437z"/>
 <path d="m28.93 37.641c-0.71875 0.57422-0.83984 1.6211-0.26563 2.3438 2.1758 2.7344 3.3242 6.293 3.2344 10.023-0.085938 3.5156-1.1523 6.5586-3.2539 9.3008-0.55859 0.73047-0.42188 1.7773 0.30859 2.3398 0.73047 0.55859 1.7773 0.42187 2.3359-0.30859 2.5469-3.3242 3.8359-7.0039 3.9414-11.25 0.10938-4.5117-1.2969-8.8359-3.9609-12.18-0.57031-0.72656-1.6211-0.84375-2.3398-0.26953z"/>
 <path d="m18.465 40.016c-0.71094 0.58203-0.82031 1.6328-0.23828 2.3438 1.8594 2.2812 2.7656 4.7852 2.6914 7.4492-0.070313 2.6016-1.1094 5.3867-2.6406 7.0898-0.61328 0.68359-0.55859 1.7383 0.125 2.3555 0.68359 0.61719 1.7383 0.55859 2.3555-0.125 2.0625-2.293 3.4023-5.832 3.4961-9.2266 0.09375-3.4375-1.0977-6.7734-3.4453-9.6484-0.58203-0.71094-1.6289-0.81641-2.3438-0.23828z"/>
 <path d="m9.5625 42.758c-0.69141 0.60938-0.75781 1.6602-0.15234 2.3516 1.4648 1.6641 1.8828 2.7852 1.793 4.7969-0.078125 1.7422-0.63672 2.9727-1.8633 4.1211-0.67188 0.62891-0.70703 1.6836-0.078125 2.3555 0.62891 0.67188 1.6836 0.70703 2.3555 0.078126 1.8711-1.7461 2.7969-3.7812 2.9141-6.4023 0.14844-3.3008-0.89062-5.1836-2.6172-7.1484-0.60937-0.69141-1.6602-0.75781-2.3516-0.15234z"/>
 <path d="m99.977 2.1523h0.011719v-1.0938h-0.011719c0-0.63281-0.003906-1.0352-0.003906-1.0352l-0.81641-0.023438c-0.003906 0.16406-0.55078 16.648-5.9883 26.508-2.8477 5.168-3.4609 13.066-3.5938 15.82-1.3672-0.33203-5.0938-1.2344-5.7539-1.3945-0.26172-0.74219-2.1133-5.9922-2.1133-5.9922-0.015625-0.082031-2.7383-11.227-2.7383-24.035 0-2.1914 0.078125-4.4336 0.26562-6.6758 0.10938-1.3164 0.30859-2.918 0.49609-4.2266l-1.7031 0.042969c-2.4375 16.891 2.0352 35.188 2.082 35.371l0.31641 0.89844c-0.11328 0.21875-0.30859 0.39062-0.56641 0.44141-0.39062 0.078126-0.78516-0.12891-0.9375-0.49609-1.3828-3.3281-3.7617-5.8125-6.3633-6.6445-1.7578-0.5625-3.4844-0.33203-5.1211 0.6875-4.5391 2.8242-3 9.0117-0.91016 13.707 2.2969 5.168 2.0586 9.9961 1.8672 13.875-0.22656 4.5586-0.375 7.5664 3.0078 9.2734 5.5039 2.7773 10.727-4.3516 10.781-4.4258 0.19141-0.26562 0.52734-0.39453 0.84766-0.32812 0.32422 0.070312 0.57422 0.32031 0.64453 0.64453 2.2422 10.664 8.2305 18.164 13.613 21.48 0.37109 0.23047 2.2695 1.2852 2.6758 1.4961v-76.84c0.007812-0.050781 0.015625-0.10547 0.023437-0.15625v-0.007812c0-1.4453-0.007812-4.6992-0.011719-6.8711zm-21.441 56.332c-0.92578 0.76562-2.2227 0.99609-3.4648 0.61328-2.5352-0.77344-3.5156-3.5742-2.5508-7.3086 0.36719-1.4297 0.48438-2.207-0.85547-4.2383-1.1172-1.6914-1.8828-4.7148-1.1094-6.9805 0.43359-1.2578 1.2969-2.1406 2.5039-2.5508 1.1914-0.40234 2.4297-0.23828 3.4805 0.46484 1.4492 0.96484 2.4023 2.8242 2.5508 4.9805 0.03125 0.45703-0.31641 0.85547-0.77344 0.89062-0.46094 0.03125-0.85547-0.31641-0.89062-0.77344-0.11328-1.6172-0.80469-3.0352-1.8125-3.707-0.62109-0.41406-1.3203-0.50781-2.0234-0.27344-0.71875 0.24219-1.1992 0.73828-1.4648 1.5117-0.57422 1.6758 0.03125 4.1719 0.92188 5.5234 1.5586 2.3594 1.5938 3.5742 1.082 5.5703-0.19531 0.75391-1.0391 4.5469 1.4258 5.2969 0.71484 0.21875 1.4141 0.10938 1.9141-0.30469 0.69922-0.58203 0.99609-1.7383 0.83203-3.2539-0.050781-0.46094 0.28125-0.87109 0.73828-0.91797 0.45703-0.050782 0.87109 0.28125 0.91797 0.73828 0.29688 2.6836-0.60938 4.0469-1.4219 4.7188z"/>
<text x="0.0" y="117.5" font-size="5.0" font-weight="bold" font-family="Arbeit Regular, Helvetica, Arial-Unicode, Arial, Sans-serif" fill="#000000">Created by Hayashi Fumihiro</text><text x="0.0" y="122.5" font-size="5.0" font-weight="bold" font-family="Arbeit Regular, Helvetica, Arial-Unicode, Arial, Sans-serif" fill="#000000">from Noun Project</text></svg>