<svg xmlns="http://www.w3.org/2000/svg" version="1.1" viewBox="-5.0 -10.0 110.0 135.0">
 <path d="m65.531 47.531c-0.94141-1.5312-2.1172-3.5312-2.1172-5.5312 0-4.1172 0.35156-8.5898-2-13.293-2.707-5.4102-8.707-10.469-15.531-12.117-8.707-2.1172-18.59-1.5312-26.234 5.4102-6.9414 6.2344-10.238 17.176-7.8828 28.469 3.293 15.41 8.2344 21.176 9.6484 24.707 1.4102 3.5312 1.293 10.59-1.0586 14.117-1.293 2-5.0586 8.4688-6.4688 10.707h52.23c-0.94141-1.5312-3.293-3.6484-5.5312-4.8242-2.4688-1.4102-7.8828-3.293-10.941-5.5312-2.4688-1.7656-1.5312-8.9414-1.0586-10.707 0.46875-1.4102 0.82422-2 2.3516-2 1.8828 0 5.0586 0.82422 7.4102 0.11719 2.8242-0.94141 3.1758-7.0586 3.1758-7.0586l-7.0586-3.7656s6.3516-2.8242 7.7656-3.293c0.11719-1.7656 0.35156-3.8828 0.35156-3.8828s2.3516-0.11719 4.9414-0.46875c2.9414-0.35156 2.3516-3.293 1.5312-4.8242-1.1719-1.8789-2.7031-4.8203-3.5234-6.2305z"/>
 <path d="m89.293 58.941c-0.58984-0.70703-1.6484-0.82422-2.3516-0.23438-0.70703 0.58984-0.82422 1.6484-0.23438 2.3516 1.6484 2.1172 2.5898 4.8242 2.4688 7.6484-0.11719 2.707-0.82422 5.0586-2.4688 7.0586-0.58984 0.70703-0.46875 1.7656 0.35156 2.3516 0.70703 0.58984 1.7656 0.46875 2.3516-0.35156 2-2.707 3.0586-5.6484 3.1758-9.0586 0.003906-3.6484-1.1758-7.1758-3.293-9.7656z"/>
 <path d="m79.059 60.469c-0.70703 0.58984-0.82422 1.6484-0.23438 2.3516 1.4102 1.7656 2.1172 3.6484 2 5.6484 0 2-0.82422 4.1172-2 5.293-0.58984 0.70703-0.58984 1.7656 0.11719 2.3516 0.70703 0.58984 1.7656 0.58984 2.3516-0.11719 1.6484-1.8828 2.707-4.707 2.8242-7.5312 0.11719-2.8242-0.94141-5.5312-2.8242-7.7656-0.46875-0.69922-1.5273-0.81641-2.2344-0.23047z"/>
 <path d="m71.766 62.707c-0.70703 0.58984-0.70703 1.6484-0.11719 2.3516 1.0586 1.293 1.4102 2 1.293 3.5312 0 1.293-0.46875 2.1172-1.293 2.9414-0.70703 0.58984-0.70703 1.6484-0.11719 2.3516 0.58984 0.70703 1.6484 0.70703 2.3516 0.11719 1.5312-1.4102 2.3516-3.1758 2.3516-5.293 0.11719-2.707-0.82422-4.3516-2.1172-5.8828-0.58594-0.70703-1.6484-0.82422-2.3516-0.11719z"/>
<text x="0.0" y="117.5" font-size="5.0" font-weight="bold" font-family="Arbeit Regular, Helvetica, Arial-Unicode, Arial, Sans-serif" fill="#000000">Created by Hayashi Fumihiro</text><text x="0.0" y="122.5" font-size="5.0" font-weight="bold" font-family="Arbeit Regular, Helvetica, Arial-Unicode, Arial, Sans-serif" fill="#000000">from Noun Project</text></svg>