<svg xmlns="http://www.w3.org/2000/svg" version="1.1" viewBox="-5.0 -10.0 110.0 135.0">
 <path d="m79.531 30.469c-4 0-7.293 3.293-7.293 7.293s3.293 7.293 7.293 7.293 7.293-3.293 7.293-7.293c0-4.1133-3.293-7.293-7.293-7.293z"/>
 <path d="m80.824 48.707c-4.3516 0-7.8828 2.1172-8.9414 6.2344-1.0586 4.1172-2.3516 9.4102-3.293 13.176h-0.70703c0.23438-0.35156 0.35156-0.70703 0.35156-1.1758v-8.8242c0-1.1758-0.94141-2-2-2h-8.707c-1.0586 0-2 0.94141-2 2l0.003906 8.9414c0 1.0586 0.82422 2 2 2-1.1758 0.58984-2 1.7656-2 3.1758v0.23438c0.11719 2 1.7656 3.4102 3.7656 3.293l12.469-0.58594c0.46875 0 1.0586-0.23438 1.4102-0.46875 0.11719-0.11719 0.35156-0.23438 0.46875-0.46875 0.23438-0.35156 0.46875-0.70703 0.58984-1.0586l0.82422-3.7656 2-9.0586c0.11719-0.35156 0.35156-0.58984 0.70703-0.58984h0.23438c0.46875 0.11719 0.70703 0.58984 0.58984 0.94141l-2.9414 12.824c-0.35156 1.293-1.1758 2.3516-2.3516 2.9414v12.941h16.707l-0.003906-31.531c0-5.0586-4.1172-9.1758-9.1758-9.1758zm-23.648 9.5273c0-0.23438 0.11719-0.35156 0.35156-0.35156h8.707c0.23438 0 0.35156 0.11719 0.35156 0.35156l0.003906 8.8242c0 0.23438-0.11719 0.35156-0.35156 0.35156h-8.707c-0.23438 0-0.35156-0.11719-0.35156-0.35156z"/>
 <path d="m20.59 46.117c4.4688 0 8.1172-3.6484 8.1172-8.1172s-3.6484-8.1172-8.1172-8.1172-8.1172 3.6484-8.1172 8.1172c-0.003906 4.4688 3.6445 8.1172 8.1172 8.1172zm0-14.469c3.5312 0 6.4688 2.9414 6.4688 6.4688 0 3.5312-2.9414 6.4688-6.4688 6.4688-3.5312 0-6.4688-2.9414-6.4688-6.4688-0.003906-3.6484 2.9375-6.4688 6.4688-6.4688z"/>
 <path d="m50.117 60.941s-10-2.1172-10.824-2.2344c-0.23438-0.11719-2.4688-1.6484-2.4688-1.6484l-9.8828-6.5898c-2.5898-1.6484-4.5898-2.3516-6.9414-2.3516-5.5312 0-9.7656 4.2344-9.7656 9.8828v32.352h20.117v-26c1.5312 0.94141 4 2.707 4 2.707s1.5312 0.58984 1.5312 0.58984l12.469 2.3516c2.3516 0.46875 4.5898-0.82422 5.293-3.0586 0.35156-1.293 0.23438-2.8242-0.46875-4-0.70703-1.0586-1.7656-1.7656-3.0586-2zm1.8828 5.4102c-0.46875 1.4102-1.8828 2.2344-3.4102 1.8828l-12.469-2.3516-0.94141-0.35156-6.5898-4.3555v27.41h-16.707v-30.707c0-4.707 3.4102-8.2344 8.1172-8.2344 2 0 3.7656 0.58984 6 2.1172l9.8828 6.5898 2.707 1.8828h0.11719l11.059 2.3516c0.82422 0.11719 1.5312 0.58984 1.8828 1.1758 0.58594 0.94531 0.58594 2.0039 0.35156 2.5898z"/>
 <path d="m78.824 21.176 7.4102-4.3516-7.4102-4.4727v2.8242h-21.766v3.293h21.766z"/>
<text x="0.0" y="117.5" font-size="5.0" font-weight="bold" font-family="Arbeit Regular, Helvetica, Arial-Unicode, Arial, Sans-serif" fill="#000000">Created by Hayashi Fumihiro</text><text x="0.0" y="122.5" font-size="5.0" font-weight="bold" font-family="Arbeit Regular, Helvetica, Arial-Unicode, Arial, Sans-serif" fill="#000000">from Noun Project</text></svg>