<svg version="1.1"
	 xmlns="http://www.w3.org/2000/svg" xmlns:xlink="http://www.w3.org/1999/xlink" x="0px" y="0px" viewBox="0 0 750 750"
	 style="enable-background:new 0 0 750 750;" xml:space="preserve">
<style type="text/css">
	<!-- .st0{fill:#FFF200;}
	.st1{fill:#3259A7;}
	.st2{fill:#2EB34B;}
	.st3{fill:#EC2127;} -->
</style>
	<g extraneous = "self" >
		<g>
			<path class="st0" d="M427.2,279.7c-9.3,0-17.7-3.9-23.7-10.2c-3.1-3.3-7.3-5.3-11.8-5.3h-0.8c-8.8,0-15.9,7.1-15.9,15.9V375
				h-94.8c-8.8,0-15.9-7.1-15.9-15.9v-0.8c0-4.5,2-8.7,5.3-11.8c6.3-6,10.2-14.4,10.2-23.7c0-19.3-16.8-34.7-36.5-32.5
				c-14.7,1.7-26.7,13.4-28.6,28.1c-1.4,11,2.6,21.1,9.8,28c3.3,3.1,5.3,7.3,5.3,11.9v0.8c0,8.8-7.1,15.9-15.9,15.9h-94.8v-94.8
				c0-8.8-7.1-15.9-15.9-15.9h-0.8c-4.5,0-8.7,2-11.9,5.3c-6.9,7.2-17,11.2-28,9.8c-14.7-1.9-26.5-13.9-28.1-28.6
				c-2.2-19.8,13.2-36.5,32.5-36.5c9.3,0,17.7,3.9,23.7,10.2c3.1,3.3,7.3,5.3,11.8,5.3h0.8c8.8,0,15.9-7.1,15.9-15.9v-94.8h94.8
				c8.8,0,15.9,7.1,15.9,15.9v0.8c0,4.5-2,8.7-5.3,11.8c-6.3,6-10.2,14.4-10.2,23.7c0,19.3,16.8,34.7,36.5,32.5
				c14.7-1.7,26.7-13.4,28.6-28.1c1.4-11-2.6-21.1-9.8-28c-3.3-3.1-5.3-7.3-5.3-11.9v-0.8c0-8.8,7.1-15.9,15.9-15.9H375v94.8
				c0,8.8,7.1,15.9,15.9,15.9h0.8c4.5,0,8.7-2,11.9-5.3c6.9-7.2,17-11.2,28-9.8c14.7,1.9,26.5,13.9,28.1,28.6
				C462,262.9,446.6,279.7,427.2,279.7z"/>
			<path class="st1" d="M683.3,535.8c-9.3,0-17.7-3.9-23.7-10.2c-3.1-3.3-7.3-5.3-11.8-5.3H647c-8.8,0-15.9,7.1-15.9,15.9v94.8
				h-94.8c-8.8,0-15.9-7.1-15.9-15.9v-0.8c0-4.5,2-8.7,5.3-11.8c6.3-6,10.2-14.4,10.2-23.7c0-19.3-16.8-34.7-36.5-32.5
				c-14.7,1.7-26.7,13.4-28.6,28.1c-1.4,11,2.6,21.1,9.8,28c3.3,3.1,5.3,7.3,5.3,11.9v0.8c0,8.8-7.1,15.9-15.9,15.9H375v-94.8
				c0-8.8-7.1-15.9-15.9-15.9h-0.8c-4.5,0-8.7,2-11.9,5.3c-6.9,7.2-17,11.2-28,9.8c-14.7-1.9-26.5-13.9-28.1-28.6
				c-2.2-19.8,13.2-36.5,32.5-36.5c9.3,0,17.7,3.9,23.7,10.2c3.1,3.3,7.3,5.3,11.8,5.3h0.8c8.8,0,15.9-7.1,15.9-15.9V375h94.8
				c8.8,0,15.9,7.1,15.9,15.9v0.8c0,4.5-2,8.7-5.3,11.8c-6.3,6-10.2,14.4-10.2,23.7c0,19.3,16.8,34.7,36.5,32.5
				c14.7-1.7,26.7-13.4,28.6-28.1c1.4-11-2.6-21.1-9.8-28c-3.3-3.1-5.3-7.3-5.3-11.9v-0.8c0-8.8,7.1-15.9,15.9-15.9h94.8v94.8
				c0,8.8,7.1,15.9,15.9,15.9h0.8c4.5,0,8.7-2,11.9-5.3c6.9-7.2,17-11.2,28-9.8c14.7,1.9,26.5,13.9,28.1,28.6
				C718.1,519,702.7,535.8,683.3,535.8z"/>
			<path class="st2" d="M290.3,506.9c1.7,14.7,13.4,26.7,28.1,28.6c11,1.4,21.1-2.6,28-9.8c3.1-3.3,7.3-5.3,11.9-5.3h0.8
				c8.8,0,15.9,7.1,15.9,15.9v94.8h-94.8c-8.8,0-15.9,7.1-15.9,15.9v0.8c0,4.5,2,8.7,5.3,11.9c7.2,6.9,11.2,17,9.8,28
				c-1.9,14.7-13.9,26.5-28.6,28.1c-19.8,2.2-36.5-13.2-36.5-32.5c0-9.3,3.9-17.7,10.2-23.7c3.3-3.1,5.3-7.3,5.3-11.8V647
				c0-8.8-7.1-15.9-15.9-15.9h-94.8v-94.8c0-8.8,7.1-15.9,15.9-15.9h0.8c4.5,0,8.7,2,11.8,5.3c6,6.3,14.4,10.2,23.7,10.2
				c19.3,0,34.7-16.8,32.5-36.5c-1.7-14.7-13.4-26.7-28.1-28.6c-11-1.4-21.1,2.6-28,9.8c-3.1,3.3-7.3,5.3-11.9,5.3h-0.8
				c-8.8,0-15.9-7.1-15.9-15.9V375h94.8c8.8,0,15.9-7.1,15.9-15.9v-0.8c0-4.5-2-8.7-5.3-11.9c-7.2-6.9-11.2-17-9.8-28
				c1.9-14.7,13.9-26.5,28.6-28.1c19.8-2.2,36.5,13.2,36.5,32.5c0,9.3-3.9,17.7-10.2,23.7c-3.3,3.1-5.3,7.3-5.3,11.8v0.8
				c0,8.8,7.1,15.9,15.9,15.9H375v94.8c0,8.8-7.1,15.9-15.9,15.9h-0.8c-4.5,0-8.7-2-11.8-5.3c-6-6.3-14.4-10.2-23.7-10.2
				C303.4,470.3,288,487.1,290.3,506.9z"/>
			<path class="st3" d="M546.4,250.7c1.7,14.7,13.4,26.7,28.1,28.6c11,1.4,21.1-2.6,28-9.8c3.1-3.3,7.3-5.3,11.9-5.3h0.8
				c8.8,0,15.9,7.1,15.9,15.9V375h-94.8c-8.8,0-15.9,7.1-15.9,15.9v0.8c0,4.5,2,8.7,5.3,11.9c7.2,6.9,11.2,17,9.8,28
				c-1.9,14.7-13.9,26.5-28.6,28.1c-19.8,2.2-36.5-13.2-36.5-32.5c0-9.3,3.9-17.7,10.2-23.7c3.3-3.1,5.3-7.3,5.3-11.8v-0.8
				c0-8.8-7.1-15.9-15.9-15.9H375v-94.8c0-8.8,7.1-15.9,15.9-15.9h0.8c4.5,0,8.7,2,11.8,5.3c6,6.3,14.4,10.2,23.7,10.2
				c19.3,0,34.7-16.8,32.5-36.5c-1.7-14.7-13.4-26.7-28.1-28.6c-11-1.4-21.1,2.6-28,9.8c-3.1,3.3-7.3,5.3-11.9,5.3h-0.8
				c-8.8,0-15.9-7.1-15.9-15.9v-94.8h94.8c8.8,0,15.9-7.1,15.9-15.9v-0.8c0-4.5-2-8.7-5.3-11.9c-7.2-6.9-11.2-17-9.8-28
				c1.9-14.7,13.9-26.5,28.6-28.1c19.8-2.2,36.5,13.2,36.5,32.5c0,9.3-3.9,17.7-10.2,23.7c-3.3,3.1-5.3,7.3-5.3,11.8v0.8
				c0,8.8,7.1,15.9,15.9,15.9h94.8v94.8c0,8.8-7.1,15.9-15.9,15.9h-0.8c-4.5,0-8.7-2-11.8-5.3c-6-6.3-14.4-10.2-23.7-10.2
				C559.6,214.2,544.1,231,546.4,250.7z"/>
		</g>
					</g>
	</svg>