<?xml version="1.0" encoding="UTF-8" standalone="no"?>
<!-- Created with Inkscape (http://www.inkscape.org/) -->

<svg
   version="1.1"
   id="svg2"
   width="2933.3333"
   height="1954.6667"
   viewBox="0 0 2933.3333 1954.6667"
   sodipodi:docname="Puzzle Rectangle Outline Style.eps"
   xmlns:inkscape="http://www.inkscape.org/namespaces/inkscape"
   xmlns:sodipodi="http://sodipodi.sourceforge.net/DTD/sodipodi-0.dtd"
   xmlns="http://www.w3.org/2000/svg"
   xmlns:svg="http://www.w3.org/2000/svg">
  <defs
     id="defs6" />
  <sodipodi:namedview
     id="namedview4"
     pagecolor="#ffffff"
     bordercolor="#000000"
     borderopacity="0.25"
     inkscape:showpageshadow="2"
     inkscape:pageopacity="0.0"
     inkscape:pagecheckerboard="0"
     inkscape:deskcolor="#d1d1d1" />
  <g
     id="g8"
     inkscape:groupmode="layer"
     inkscape:label="ink_ext_XXXXXX"
     transform="matrix(1.3333333,0,0,-1.3333333,0,1954.6667)">
    <g
       id="g10"
       transform="scale(0.1)">
      <path
         d="M 22000,0 H 0 V 14660 H 22000 V 0"
         style="fill:#ffffff;fill-opacity:1;fill-rule:nonzero;stroke:none"
         id="path12" />
      <path
         d="m 15112.9,1258.4 v 1643.7 c 0,28.4 -11,55.1 -31.2,75.5 -20.3,20.1 -47,31.2 -75.3,31.2 -29.7,0 -58.3,-12.6 -78.6,-34.6 -78.5,-85.4 -189.9,-134.3 -305.8,-134.3 -112.1,0 -217.2,44 -295.9,123.8 -78.6,79.8 -121.1,185.4 -119.5,297.6 1.6,110.4 46.4,213.9 126.4,291.6 80,77.7 185.2,119.8 295.5,117.9 114.9,-1.8 221.2,-49.4 299.3,-134.3 10.2,-11 22.2,-19.6 35.6,-25.5 13.6,-6 28,-9 43,-9 58.7,0 106.5,47.8 106.5,106.6 v 1643.66 h 1659.6 c 5.2,0 8.4,-2.5 10,-4.15 1.6,-1.53 4.2,-4.89 4.2,-10.1 0,-4.12 -1.6,-7.79 -4.4,-10.29 -102.3,-92.13 -162.2,-223.8 -164.3,-361.27 -2.1,-132.16 47.9,-257.55 140.7,-353.05 92.6,-95.5 216.4,-149.1 348.4,-150.9 2.4,-0.1 4.8,-0.1 7.1,-0.1 131.4,0 254.9,50.6 348.5,143 95.4,93.9 147.8,219.41 147.8,353.26 0,140.64 -60,275.17 -164.4,368.92 -2.8,2.55 -4.5,6.45 -4.5,10.43 0,7.85 6.4,14.25 14.3,14.25 h 1655.2 V 1258.4 Z m -80.8,0 h -3993.8 v 1643.7 c 0,14.2 11.5,25.8 25.6,25.8 3.5,0 7,-0.8 10.4,-2.3 3.2,-1.4 6.3,-3.6 8.7,-6.1 91.7,-99.9 222.1,-158.3 357.6,-160.4 132.5,-2.3 257.7,48 353.2,140.8 95.4,92.7 148.9,216.4 150.7,348.4 2,133.8 -48.7,260.1 -142.7,355.4 -94,95.4 -219.6,147.9 -353.5,147.9 -138.4,0 -271.6,-58.4 -365.4,-160.4 -4.9,-5.3 -11.8,-8.3 -19,-8.3 -8.8,0 -14.7,4.1 -18.2,7.5 -4.8,4.8 -7.4,11.3 -7.4,18.2 v 1643.68 h 1643.5 c 28.6,0 55.3,11.08 75.4,31.18 20.2,20.19 31.4,46.97 31.4,75.41 0,29.53 -12.6,58.09 -34.6,78.42 -85.4,78.71 -134.3,190.19 -134.3,305.88 0,112.16 44,217.29 123.9,296.04 79.8,78.64 185.8,120.83 297.5,119.44 110.3,-1.5 213.8,-46.3 291.4,-126.14 77.8,-80.04 119.8,-185.11 118.1,-295.8 -1.8,-114.9 -49.5,-221.18 -134.4,-299.35 -10.7,-9.91 -19.2,-21.72 -25.4,-35.32 -6,-13.49 -9,-28.02 -9,-43.17 0,-58.78 47.8,-106.59 106.7,-106.59 h 1643.6 V 3608.6 c 0,-14.2 -11.6,-25.7 -25.7,-25.7 -3.6,0 -7.1,0.7 -10.4,2.1 -3.2,1.4 -6.2,3.6 -8.7,6.3 -91.9,99.9 -222.3,158.3 -357.6,160.3 -132,1.9 -257.6,-48 -353.1,-140.7 -95.4,-92.7 -149,-216.5 -150.8,-348.5 -1.9,-133.9 48.8,-260.2 142.7,-355.5 94,-95.3 219.5,-147.8 353.5,-147.8 138.4,0 271.6,58.4 365.3,160.3 9.8,10.6 27.4,10.8 37.2,1.1 4.9,-5 7.6,-11.5 7.6,-18.4 z M 2888.86,5252.28 h 1655.18 c 52.5,0 95.21,42.7 95.21,95.2 0,26.68 -11.27,52.24 -31.11,70.29 -87.55,78.73 -137.77,191.34 -137.77,308.96 0,112.08 43.93,217.12 123.7,295.79 79.77,78.66 185.36,121.32 297.66,119.56 110.42,-1.56 213.99,-46.44 291.61,-126.36 77.68,-79.99 119.54,-184.92 117.87,-295.45 -1.78,-115.1 -51.95,-225.37 -137.67,-302.52 -19.76,-17.78 -31.09,-43.39 -31.09,-70.27 0,-25.5 9.87,-49.39 27.6,-67.12 17.89,-18.11 41.85,-28.08 67.48,-28.08 H 6882.72 V 3597.1 c 0,-5.2 -2.53,-8.5 -4.23,-10.1 -5.32,-5.4 -15.47,-5.2 -20.3,0.2 -92.14,102.4 -223.85,162.3 -361.38,164.4 -131.7,1.9 -257.52,-47.9 -353.03,-140.7 -95.43,-92.7 -149,-216.4 -150.87,-348.5 -1.86,-134 48.87,-260.3 142.85,-355.6 93.98,-95.2 219.47,-147.7 353.36,-147.7 140.52,0 275.05,60 368.91,164.3 2.53,2.8 6.49,4.5 10.34,4.5 7.91,0 14.35,-6.4 14.35,-14.3 V 1258.4 H 2888.86 Z m 0,8149.32 h 3993.86 v -1655.2 c 0,-52.5 42.64,-95.1 95.09,-95.1 26.9,0 52.53,11.3 70.34,31.1 78.66,87.5 191.26,137.7 308.94,137.7 112.07,0 217.13,-43.9 295.83,-123.7 78.68,-79.8 121.15,-185.5 119.58,-297.7 -1.55,-110.4 -46.42,-213.9 -126.36,-291.5 -80.03,-77.7 -185.28,-119.2 -295.55,-117.9 -115.04,1.7 -225.26,51.9 -302.46,137.7 -17.84,19.7 -43.47,31.1 -70.36,31.1 -52.41,0 -95.05,-42.7 -95.05,-95.1 V 9407.74 H 5239.03 c -6.88,0 -13.36,2.69 -18.2,7.51 -4.87,4.87 -7.56,11.34 -7.56,18.2 0,7.17 3.08,14.11 8.41,19.03 101.95,93.79 160.42,226.95 160.42,365.33 0,133.91 -52.51,259.49 -147.87,353.49 -93.61,92.3 -217.04,142.8 -348.29,142.8 -2.4,0 -4.83,0 -7.23,0 -131.98,-1.8 -255.71,-55.4 -348.4,-150.8 -92.8,-95.6 -142.8,-220.97 -140.78,-353.18 2.07,-135.42 60.51,-265.76 160.24,-357.52 2.75,-2.55 4.9,-5.53 6.31,-8.71 1.48,-3.37 2.23,-6.88 2.23,-10.44 0,-14.17 -11.56,-25.71 -25.76,-25.71 H 2888.86 Z m 8068.54,-1643.7 c 0,-14.2 -11.5,-25.7 -25.7,-25.7 -3.5,0 -7.1,0.7 -10.3,2.1 -3.3,1.5 -6.3,3.6 -8.7,6.3 -91.9,99.8 -222.2,158.3 -357.7,160.3 -132.1,1.9 -257.6,-48 -353.1,-140.7 -95.4,-92.7 -149,-216.5 -150.8,-348.4 -1.9,-134 48.8,-260.2 142.8,-355.6 94,-95.3 219.5,-147.8 353.5,-147.8 138.3,0 271.5,58.4 365.3,160.3 9.7,10.6 27.3,10.8 37.2,1 4.8,-4.9 7.5,-11.4 7.5,-18.3 V 9407.74 H 9302.18 c -52.44,0 -95.09,-42.64 -95.09,-95.09 0,-26.9 11.34,-52.53 31.14,-70.35 87.52,-78.65 137.72,-191.26 137.72,-308.93 0,-112.07 -43.95,-217.13 -123.75,-295.83 -79.78,-78.68 -185.34,-121.3 -297.65,-119.58 -110.38,1.55 -213.92,46.42 -291.55,126.36 -77.71,80.02 -119.56,184.98 -117.87,295.55 1.75,115.04 51.91,225.26 137.68,302.46 19.75,17.84 31.07,43.47 31.07,70.36 0,52.41 -42.64,95.05 -95.05,95.05 H 6963.57 V 11063 c 0,7.8 6.37,14.2 14.24,14.2 4.02,0 7.78,-1.6 10.26,-4.4 92.15,-102.4 223.84,-162.3 361.29,-164.4 131.71,-1.7 257.57,48 353.12,140.8 95.44,92.6 149.03,216.4 150.88,348.4 1.86,134 -48.87,260.2 -142.86,355.5 -94.02,95.4 -219.52,147.9 -353.41,147.9 -140.59,0 -275.11,-60 -369.07,-164.5 -2.48,-2.8 -6.2,-4.4 -10.25,-4.4 -7.83,0 -14.2,6.4 -14.2,14.3 v 1655.2 h 3993.83 z m 4174.2,-106.6 c 26.9,0 52.5,11.3 70.3,31.1 78.7,87.5 191.3,137.7 309,137.7 112,0 217.1,-43.9 295.8,-123.7 78.7,-79.8 121.1,-185.5 119.6,-297.7 -1.6,-110.4 -46.5,-213.9 -126.4,-291.5 -80,-77.7 -184.9,-119.3 -295.5,-117.9 -115.1,1.7 -225.3,51.9 -302.5,137.7 -17.8,19.7 -43.5,31.1 -70.4,31.1 -52.4,0 -95,-42.7 -95,-95.1 V 9407.74 h -1643.7 c -14.2,0 -25.8,11.54 -25.8,25.71 0,3.56 0.8,7.07 2.2,10.29 1.5,3.33 3.6,6.31 6.3,8.78 99.8,91.83 158.3,222.17 160.3,357.61 2,132.2 -48,257.57 -140.8,353.17 -92.7,95.4 -216.4,149 -348.3,150.8 -133.8,1.9 -260.3,-48.8 -355.6,-142.8 -95.3,-94 -147.8,-219.58 -147.8,-353.49 0,-138.37 58.4,-271.53 160.3,-365.3 5.4,-4.95 8.5,-11.89 8.5,-19.06 0,-6.86 -2.7,-13.33 -7.5,-18.15 -4.9,-4.87 -11.4,-7.56 -18.3,-7.56 h -1648 v 1643.66 c 0,28.5 -11.1,55.2 -31.2,75.4 -20.1,20.1 -46.9,31.3 -75.4,31.3 -29.6,0 -58.3,-12.6 -78.5,-34.6 -78.5,-85.3 -190,-134.3 -305.8,-134.3 -112.1,0 -217.2,44 -295.9,123.8 -78.7,79.8 -121.1,185.5 -119.5,297.6 1.5,110.4 46.3,213.9 126.2,291.5 80.1,77.8 185,119.6 295.6,118 115,-1.8 221.3,-49.4 299.4,-134.3 10.1,-10.9 22,-19.4 35.6,-25.5 13.7,-6 28.1,-9 42.9,-9 58.8,0 106.6,47.8 106.6,106.6 v 1643.7 h 3998.2 v -1655.2 c 0,-52.5 42.6,-95.1 95.1,-95.1 z m 3979.5,-2243.58 h -1643.6 c -14.2,0 -25.8,11.52 -25.8,25.67 0,3.5 0.8,6.98 2.3,10.51 1.4,3.23 3.5,6.12 6.2,8.59 101.3,93.19 158.2,220.19 160.3,357.59 2,132.24 -48,257.72 -140.8,353.22 -92.7,95.4 -216.4,149 -348.4,150.8 -133.9,1.9 -260.2,-48.9 -355.5,-142.9 -95.4,-94 -147.9,-219.52 -147.9,-353.39 0,-138.41 58.5,-271.57 160.4,-365.21 5.5,-5.09 8.5,-11.91 8.5,-19.21 0,-6.85 -2.7,-13.24 -7.6,-18.11 -3.4,-3.45 -9.4,-7.56 -18.2,-7.56 H 15117.3 V 11063 c 0,7.8 6.4,14.2 14.3,14.2 4,0 7.8,-1.6 10.2,-4.4 92.2,-102.4 223.9,-162.3 361.3,-164.4 132.4,-1.7 257.6,48 353.1,140.8 95.5,92.6 149.1,216.4 150.9,348.4 1.9,134 -48.8,260.2 -142.8,355.5 -94,95.4 -219.6,147.9 -353.4,147.9 -140.6,0 -275.1,-60 -369.1,-164.5 -2.5,-2.8 -6.2,-4.4 -10.3,-4.4 -7.8,0 -14.2,6.4 -14.2,14.3 v 1655.2 h 3993.8 z m -8104,-2355.65 c -20.2,20.21 -47,31.33 -75.4,31.33 -29.5,0 -58.1,-12.57 -78.4,-34.53 -78.7,-85.38 -190.2,-134.35 -305.9,-134.35 -112.2,0 -217.3,44 -296,123.89 -78.7,79.78 -121.1,185.42 -119.5,297.49 1.5,110.31 46.3,213.8 126.2,291.42 80,77.82 185.2,119.96 295.7,118.16 115,-1.78 221.2,-49.49 299.4,-134.41 9.9,-10.7 21.7,-19.21 35.3,-25.39 13.5,-6.03 28,-9.08 43.2,-9.08 58.8,0 106.6,47.87 106.6,106.72 v 1643.56 h 1648 c 28.5,0 55.2,11.06 75.4,31.2 20.1,20.14 31.2,46.91 31.2,75.37 0,29.68 -12.5,58.3 -34.5,78.54 -85.3,78.53 -134.3,190 -134.3,305.82 0,112.1 44,217.19 123.8,295.89 79.8,78.7 185,121.1 297.6,119.5 110.4,-1.5 213.9,-46.3 291.5,-126.3 77.8,-80 119.7,-184.96 118,-295.54 -1.8,-115.02 -49.5,-221.32 -134.3,-299.41 -10.9,-10.07 -19.4,-21.99 -25.5,-35.57 -6,-13.68 -9,-28.12 -9,-42.93 0,-58.76 47.8,-106.57 106.6,-106.57 h 1643.6 V 7671.66 c 0,-7.85 -6.4,-14.25 -14.3,-14.25 -3.9,0 -7.7,1.61 -10.1,4.39 -94,104.55 -228.5,164.51 -369.1,164.51 -133.9,0 -259.4,-52.5 -353.4,-147.84 -94,-95.32 -144.8,-221.6 -142.9,-355.59 1.9,-132.05 55.5,-255.81 150.9,-348.49 95.6,-92.71 220.8,-142.43 353,-140.56 137.5,2.01 269.2,61.88 361.3,164.26 2.6,2.82 6.3,4.44 10.4,4.44 7.8,0 14.2,-6.35 14.2,-14.15 V 5333.13 h -1647.9 c -14.3,0 -25.9,11.55 -25.9,25.74 0,3.67 0.7,7.19 2,9.98 1.6,3.57 3.8,6.57 6.5,9.1 101.3,93.24 158.3,220.2 160.4,357.54 1.9,132.34 -48.2,257.84 -141,353.39 -92.7,95.34 -216.4,148.83 -348.3,150.63 -134,1.53 -260.1,-48.76 -355.4,-142.71 -95.4,-94.07 -148,-219.65 -148,-353.63 0,-138.21 58.5,-271.37 160.4,-365.27 5.4,-5.03 8.5,-11.96 8.5,-19.03 0,-6.83 -2.7,-13.29 -7.7,-18.24 -4.8,-4.83 -11.3,-7.5 -18.2,-7.5 h -1643.5 v 1643.55 c 0,28.51 -11.1,55.29 -31.2,75.39 z m -49.7,-1718.94 H 9302.24 c -52.49,0 -95.2,-42.7 -95.2,-95.2 0,-26.68 11.27,-52.24 31.1,-70.29 87.56,-78.73 137.78,-191.34 137.78,-308.96 0,-112.07 -43.93,-217.08 -123.7,-295.78 -79.77,-78.7 -185.68,-121.2 -297.66,-119.6 -110.43,1.6 -213.98,46.5 -291.6,126.4 -77.69,80 -119.55,184.9 -117.88,295.44 1.77,115.1 51.95,225.37 137.66,302.52 19.77,17.78 31.1,43.39 31.1,70.27 0,25.47 -9.87,49.37 -27.6,67.12 -17.89,18.11 -41.85,28.08 -67.48,28.08 H 6963.57 v 1655.19 c 0,52.43 -42.65,95.08 -95.2,95.08 -26.79,0 -52.41,-11.37 -70.28,-31.21 -77.18,-85.76 -187.42,-135.89 -302.52,-137.54 -110.25,-1.83 -215.38,40.08 -295.37,117.72 -79.98,77.63 -124.88,181.19 -126.44,291.61 -1.56,112.2 40.94,217.95 119.65,297.77 78.69,79.79 183.7,123.73 295.71,123.73 117.74,0 230.34,-50.21 308.97,-137.79 17.86,-19.84 43.47,-31.22 70.41,-31.22 52.42,0 95.07,42.71 95.07,95.21 v 1655.2 h 1655.26 c 7.83,0 14.19,-6.36 14.19,-14.23 0,-4.02 -1.61,-7.78 -4.36,-10.26 -102.39,-92.16 -162.3,-223.84 -164.38,-361.29 -2.03,-132.17 47.94,-257.58 140.71,-353.12 92.69,-95.44 216.43,-149.03 348.43,-150.88 2.39,-0.03 4.76,-0.05 7.14,-0.05 131.31,0.01 254.8,50.59 348.41,142.91 95.34,94.01 147.84,219.52 147.84,353.41 0,140.58 -59.97,275.11 -164.51,369.07 -2.77,2.48 -4.36,6.2 -4.36,10.25 0,7.83 6.39,14.19 14.24,14.19 H 10957.4 V 7683.32 c 0,-14.26 -11.5,-25.86 -25.7,-25.86 -3.7,0 -7.2,0.71 -10,1.95 -3.6,1.63 -6.6,3.78 -9.1,6.5 -93.2,101.32 -220.2,158.29 -357.5,160.42 -132,2.01 -257.9,-48.15 -353.4,-141.03 -95.4,-92.68 -148.8,-216.38 -150.6,-348.27 -2,-133.85 48.7,-260.07 142.7,-355.39 94,-95.43 219.6,-147.98 353.6,-147.98 138.2,0 271.4,58.47 365.3,160.34 9.8,10.65 27.2,10.93 37.2,0.89 4.9,-4.84 7.5,-11.31 7.5,-18.21 z M 2888.86,9326.88 h 1643.69 c 58.79,0 106.62,47.81 106.62,106.57 0,14.81 -3.04,29.25 -9.11,43.07 -5.96,13.44 -14.49,25.36 -25.46,35.51 -84.79,78.01 -132.46,184.32 -134.22,299.33 -1.68,110.58 40.2,215.54 117.94,295.54 77.62,80 181.15,124.8 291.52,126.3 112.22,1.4 217.83,-40.8 297.62,-119.5 79.82,-78.7 123.78,-183.79 123.78,-295.89 0,-115.83 -48.95,-227.3 -134.35,-305.86 -21.91,-20.22 -34.48,-48.83 -34.48,-78.5 0,-28.46 11.1,-55.23 31.28,-75.42 20.15,-20.09 46.91,-31.15 75.34,-31.15 h 1643.69 v -1655.2 c 0,-7.77 -6.52,-14.35 -14.35,-14.35 -3.86,0 -7.67,1.67 -10.15,4.42 -93.9,104.6 -228.44,164.59 -369.1,164.59 -133.82,0 -259.28,-52.49 -353.28,-147.81 -94.03,-95.35 -144.79,-221.66 -142.93,-355.68 1.86,-132.05 55.47,-255.81 150.96,-348.49 95.52,-92.72 220.82,-142.35 352.91,-140.57 137.49,1.98 269.22,61.86 361.4,164.29 2.52,2.79 6.33,4.46 10.32,4.46 7.83,0 14.22,-6.38 14.22,-14.22 V 5333.13 H 5227.53 c -5.18,0 -8.45,2.54 -10.13,4.23 -2.6,2.6 -4.09,6.29 -4.09,10.12 0,3.99 1.58,7.71 4.32,10.18 102.38,92.13 162.31,223.84 164.43,361.37 2,132.16 -47.98,257.53 -140.72,353.03 -92.67,95.43 -216.43,149.01 -348.48,150.88 -133.7,1.49 -260.27,-48.87 -355.57,-142.85 -95.3,-93.98 -147.78,-219.48 -147.78,-353.36 0,-140.52 59.98,-275.04 164.38,-368.93 2.78,-2.52 4.5,-6.47 4.5,-10.32 0,-7.91 -6.44,-14.35 -14.35,-14.35 H 2888.86 Z M 10957.4,2902.1 V 1258.4 H 6963.57 v 1655.2 c 0,52.5 -42.71,95.2 -95.2,95.2 -26.67,0 -52.22,-11.3 -70.29,-31.1 -78.73,-87.6 -191.34,-137.8 -308.96,-137.8 -112.07,0 -217.12,44 -295.78,123.7 -78.67,79.8 -121.14,185.5 -119.58,297.7 1.56,110.4 46.44,214 126.36,291.6 79.99,77.7 184.88,119.7 295.46,117.9 115.1,-1.8 225.36,-52 302.52,-137.7 17.79,-19.8 43.4,-31.1 70.27,-31.1 25.48,0 49.38,9.9 67.1,27.6 18.12,17.9 28.1,41.9 28.1,67.5 v 1655.18 h 1655.19 c 5.18,0 8.45,-2.53 10.11,-4.22 2.61,-2.61 4.11,-6.3 4.11,-10.13 0,-3.99 -1.58,-7.7 -4.33,-10.18 -102.38,-92.14 -162.31,-223.84 -164.42,-361.37 -2,-132.17 47.97,-257.58 140.72,-353.08 92.68,-95.4 216.43,-149 348.47,-150.8 2.38,-0.1 4.75,-0.1 7.13,-0.1 131.34,0 254.84,50.6 348.45,142.9 95.3,94 147.78,219.49 147.78,353.38 0,140.52 -59.98,275.05 -164.39,368.93 -2.77,2.52 -4.49,6.47 -4.49,10.32 0,7.91 6.44,14.35 14.34,14.35 H 10957.4 V 3608.6 c 0,-28.5 11.1,-55.3 31.1,-75.4 20.2,-20.1 47,-31.2 75.4,-31.2 29.7,0 58.3,12.6 78.5,34.5 78.6,85.3 190,134.3 305.9,134.3 112.1,0 217.2,-44 295.9,-123.9 78.7,-79.8 121.1,-185.4 119.5,-297.5 -1.5,-110.4 -46.4,-213.9 -126.3,-291.5 -80,-77.7 -185.1,-120 -295.5,-118 -115.2,1.8 -221.5,49.5 -299.6,134.5 -10,10.7 -22.3,19.4 -35.4,25.2 -13.7,6.1 -28.2,9.2 -43,9.2 -58.7,0 -106.5,-47.9 -106.5,-106.7 z m 6434.5,2265.49 c 87.6,-78.62 137.8,-191.21 137.8,-308.93 0,-112.03 -44,-217.06 -123.7,-295.76 -79.8,-78.7 -185.2,-121 -297.8,-119.6 -110.4,1.6 -213.9,46.5 -291.5,126.4 -77.7,80 -119.6,184.97 -117.9,295.51 1.8,115.05 51.9,225.27 137.7,302.46 19.7,17.8 31,43.43 31,70.34 0,25.48 -9.9,49.38 -27.7,67.16 -17.8,18.02 -41.7,27.94 -67.3,27.94 h -1655.3 v 1655.27 c 0,52.39 -42.6,95.01 -95.1,95.01 -26.8,0 -52.5,-11.35 -70.4,-31.17 -77.1,-85.73 -187.3,-135.85 -302.4,-137.53 -2.2,-0.04 -4.4,-0.06 -6.6,-0.06 -108.1,0 -210.4,41.68 -288.8,117.79 -80,77.62 -124.9,181.17 -126.4,291.59 -1.6,112.17 40.9,217.89 119.6,297.68 78.7,79.81 183.7,123.76 295.8,123.76 117.7,0 230.3,-50.19 308.8,-137.62 17.8,-19.88 43.5,-31.28 70.5,-31.28 52.4,0 95,42.67 95,95.11 v 1655.2 H 16761 c 28.5,0 55.3,11.1 75.3,31.15 20.2,20.06 31.3,46.83 31.3,75.38 0,29.61 -12.5,58.22 -34.5,78.61 -85.4,78.5 -134.3,189.97 -134.3,305.81 0,112.06 43.9,217.09 123.7,295.79 79.9,78.7 185.9,121 297.7,119.6 110.4,-1.5 213.9,-46.3 291.5,-126.2 77.7,-80.1 119.6,-185.07 117.9,-295.7 -1.7,-114.99 -49.4,-221.29 -134.2,-299.32 -11,-10.13 -19.5,-22.15 -25.4,-35.56 -6.1,-13.74 -9.1,-28.21 -9.1,-43.03 0,-58.74 47.8,-106.53 106.6,-106.53 h 1643.6 V 5333.11 h -1655.2 c -52.5,0 -95.1,-42.66 -95.1,-95.1 0,-26.75 11.2,-52.35 31.1,-70.42 z m 1759.7,8314.91 h -4074.7 -0.1 -4074.6 c -0.7,0 -1.4,-0.2 -2.2,-0.3 -0.7,0.1 -1.4,0.3 -2.1,0.3 H 6923.14 2848.43 c -22.33,0 -40.43,-18.1 -40.43,-40.5 V 9367.31 5292.75 c 0,-0.01 0,-0.03 0,-0.05 0,-0.01 0,-0.03 0,-0.04 L 2808,1218 c 0,-22.4 18.1,-40.5 40.43,-40.5 h 8149.37 4074.7 c 0.8,0 1.5,0.2 2.3,0.3 0.7,-0.1 1.3,-0.3 2,-0.3 h 4074.7 c 22.4,0 40.5,18.1 40.5,40.5 v 4074.39 c 0,0.1 0,0.2 0,0.3 v 4074.6 0.06 4074.65 c 0,22.4 -18.1,40.5 -40.4,40.5"
         style="fill:#040606;fill-opacity:1;fill-rule:nonzero;stroke:none"
         id="path14" />
    </g>
  </g>
</svg>
